<?xml version="1.0" standalone="no"?>
<!DOCTYPE svg PUBLIC "-//W3C//DTD SVG 20010904//EN"
 "http://www.w3.org/TR/2001/REC-SVG-20010904/DTD/svg10.dtd">
<svg version="1.0" xmlns="http://www.w3.org/2000/svg"
 width="500.000000pt" height="500.000000pt" viewBox="0 0 500.000000 500.000000"
 preserveAspectRatio="xMidYMid meet">
<metadata>
Created by potrace 1.16, written by Peter Selinger 2001-2019
</metadata>
<g transform="translate(0.000000,500.000000) scale(0.100000,-0.100000)"
fill="#000000" stroke="none">
<path d="M0 2500 l0 -2500 2500 0 2500 0 0 2500 0 2500 -2500 0 -2500 0 0
-2500z m1158 6 c1 -360 -1 -503 -9 -512 -16 -19 -778 -21 -797 -2 -9 9 -12
136 -12 508 0 273 3 500 7 503 4 4 187 6 407 5 l401 -3 3 -499z m512 399 c34
-17 37 -27 15 -45 -11 -9 -19 -8 -37 4 -80 56 -192 -47 -159 -146 26 -77 101
-108 166 -68 33 20 38 21 52 7 14 -13 11 -18 -23 -41 -74 -50 -175 -28 -219
49 -49 82 -22 195 55 236 42 23 110 24 150 4z m431 -8 c18 -12 44 -38 57 -57
20 -29 23 -44 20 -93 -12 -165 -202 -216 -295 -78 -17 25 -23 48 -23 86 0 92
71 165 160 165 32 0 58 -7 81 -23z m420 0 c67 -44 88 -140 49 -224 -28 -63
-68 -83 -162 -83 l-78 0 0 165 0 165 79 0 c65 0 84 -4 112 -23z m429 3 c0 -17
-8 -19 -77 -22 l-78 -3 -3 -42 -3 -43 70 0 c69 0 71 -1 71 -25 0 -24 -2 -25
-71 -25 l-70 0 3 -52 3 -53 78 -3 c69 -3 77 -5 77 -22 0 -19 -7 -20 -100 -20
l-100 0 0 165 0 165 100 0 c93 0 100 -1 100 -20z m210 -125 l0 -145 75 0 c68
0 75 -2 75 -20 0 -19 -7 -20 -100 -20 l-100 0 0 165 0 165 25 0 25 0 0 -145z
m490 125 c0 -18 -7 -20 -75 -20 l-75 0 0 -45 0 -45 65 0 c63 0 65 -1 65 -25 0
-24 -2 -25 -65 -25 l-65 0 0 -55 0 -55 75 0 c68 0 75 -2 75 -20 0 -19 -7 -20
-100 -20 l-100 0 0 165 0 165 100 0 c93 0 100 -1 100 -20z m331 4 c17 -8 28
-21 26 -27 -4 -12 -12 -12 -78 -1 -65 11 -103 -31 -61 -69 9 -8 37 -20 61 -27
50 -13 101 -58 101 -89 0 -61 -49 -101 -122 -101 -42 0 -108 30 -108 49 0 17
32 21 60 6 57 -29 120 -11 120 34 0 25 -27 46 -86 65 -65 21 -88 46 -87 94 2
72 95 107 174 66z m385 -8 c28 -23 28 -23 6 -30 -12 -4 -30 -2 -41 3 -28 16
-77 13 -91 -3 -26 -32 -8 -60 54 -82 81 -29 106 -52 106 -102 0 -33 -6 -45
-32 -67 -29 -24 -38 -27 -90 -23 -43 3 -65 10 -80 26 -17 16 -19 25 -11 33 9
9 20 8 46 -5 19 -9 47 -16 61 -16 29 0 66 31 66 55 0 19 -52 51 -95 59 -78 15
-110 98 -59 150 37 36 120 38 160 2z m-2676 -556 c0 -31 -16 -41 -26 -15 -4 8
-17 15 -30 15 -24 0 -24 -1 -24 -95 0 -57 4 -95 10 -95 6 0 10 -7 10 -15 0
-11 -11 -15 -40 -15 -29 0 -40 4 -40 15 0 8 5 15 10 15 6 0 10 38 10 95 0 94
0 95 -24 95 -13 0 -26 -7 -30 -15 -10 -26 -26 -16 -26 15 l0 30 100 0 100 0 0
-30z m450 0 c0 -31 -16 -41 -26 -15 -5 11 -22 15 -65 15 l-59 0 0 -40 0 -40
46 0 c59 0 55 -24 -4 -28 -42 -3 -42 -3 -42 -43 l0 -39 59 0 c43 0 60 4 65 15
10 26 26 16 26 -15 l0 -31 -102 3 c-70 2 -103 7 -106 16 -2 6 3 12 12 12 23 0
24 185 1 194 -8 3 -15 10 -15 16 0 6 40 10 105 10 l105 0 0 -30z m424 17 c10
-7 17 -22 15 -32 -5 -26 -29 -31 -29 -7 0 15 -8 21 -32 25 -48 7 -80 -8 -76
-36 2 -17 15 -26 58 -40 68 -22 81 -35 82 -77 2 -47 -30 -70 -94 -70 -62 0
-88 13 -88 45 0 30 25 34 33 4 5 -17 12 -20 53 -17 31 2 51 9 58 21 17 26 -3
48 -63 68 -29 9 -57 21 -63 27 -17 17 -13 74 7 88 24 18 116 18 139 1z m466
-17 c0 -16 -4 -30 -10 -30 -5 0 -10 7 -10 15 0 10 -10 15 -30 15 l-30 0 0 -95
c0 -57 4 -95 10 -95 6 0 10 -7 10 -15 0 -11 -11 -15 -40 -15 -29 0 -40 4 -40
15 0 8 7 15 15 15 12 0 15 17 15 95 l0 95 -30 0 c-20 0 -30 -5 -30 -15 0 -8
-7 -15 -15 -15 -10 0 -15 10 -15 30 l0 30 100 0 100 0 0 -30z m725 -67 l65
-98 0 83 c0 48 -4 82 -10 82 -5 0 -10 7 -10 15 0 11 11 15 40 15 29 0 40 -4
40 -15 0 -8 -4 -15 -10 -15 -5 0 -11 -47 -12 -107 -4 -143 -14 -145 -99 -17
l-64 98 -3 -79 c-2 -63 0 -80 13 -87 25 -14 7 -28 -36 -28 -28 0 -39 4 -39 15
0 8 7 15 15 15 12 0 15 17 15 95 0 78 -3 95 -15 95 -8 0 -15 7 -15 15 0 10 10
15 30 15 26 0 37 -10 95 -97z m559 91 c10 -4 16 -18 16 -35 0 -33 -19 -39 -27
-9 -3 11 -15 21 -27 22 -79 5 -106 -19 -106 -95 0 -68 26 -97 87 -97 l43 0 0
40 c0 36 -2 40 -25 40 -16 0 -25 6 -25 15 0 11 11 15 40 15 l40 0 0 -64 c0
-73 -3 -76 -79 -76 -60 0 -97 26 -111 81 -14 51 -4 103 27 140 22 25 31 29 78
29 29 0 60 -3 69 -6z"/>
<path d="M370 2500 l0 -490 380 0 380 0 -2 488 -3 487 -37 3 -38 3 0 -55 c0
-49 -3 -57 -29 -75 -35 -25 -52 -26 -113 -4 -45 16 -48 16 -97 -5 l-50 -21
-50 21 -49 21 -51 -21 c-48 -21 -51 -22 -88 -5 -63 29 -73 41 -73 95 l0 48
-40 0 -40 0 0 -490z m228 258 c7 -7 12 -39 12 -73 0 -34 -5 -66 -12 -73 -15
-15 -102 -16 -129 -2 -27 15 -28 134 -1 149 24 14 115 14 130 -1z m0 -260 c7
-7 12 -39 12 -75 0 -72 -11 -83 -80 -83 -69 0 -80 11 -80 83 0 36 5 68 12 75
7 7 37 12 68 12 31 0 61 -5 68 -12z m-4 -254 c12 -5 16 -21 16 -75 0 -60 -3
-70 -21 -80 -28 -14 -118 -6 -130 12 -13 21 -11 123 3 137 12 12 104 17 132 6z"/>
<path d="M482 2943 c3 -45 5 -48 41 -62 34 -13 43 -12 91 4 51 17 54 17 100 0
45 -17 49 -17 101 1 52 17 57 17 103 1 40 -15 54 -16 76 -6 23 11 26 18 26 61
l0 48 -79 0 c-79 0 -80 0 -83 -27 -4 -36 -26 -41 -30 -6 -3 28 -3 28 -78 28
-75 0 -75 0 -78 -28 -4 -35 -26 -30 -30 6 -3 27 -4 27 -83 27 l-80 0 3 -47z"/>
<path d="M1963 2860 c-17 -10 -37 -29 -43 -40 -17 -32 -14 -104 6 -135 65 -99
204 -51 204 70 0 48 -24 91 -60 110 -39 20 -68 19 -107 -5z"/>
<path d="M2380 2754 l0 -127 53 6 c72 9 107 47 107 117 0 89 -37 130 -120 130
l-40 0 0 -126z"/>
</g>
</svg>
